<svg version="1.1" viewBox="0.0 0.0 960.0 540.0" fill="none" stroke="none" stroke-linecap="square" stroke-miterlimit="10" xmlns:xlink="http://www.w3.org/1999/xlink" xmlns="http://www.w3.org/2000/svg"><clipPath id="g39cbe670208_0_0.0"><path d="m0 0l960.0 0l0 540.0l-960.0 0l0 -540.0z" clip-rule="nonzero"/></clipPath><g clip-path="url(#g39cbe670208_0_0.0)"><path fill="#ffffff" d="m0 0l960.0 0l0 540.0l-960.0 0z" fill-rule="evenodd"/><path fill="#000000" fill-opacity="0.0" d="m107.918205 122.98205l0 0c0 -31.40403 25.458 -56.86203 56.862038 -56.86203l630.0869 0c15.0807495 0 29.543823 5.9908066 40.20752 16.654503c10.663696 10.663704 16.654541 25.126778 16.654541 40.207527l0 227.44128c0 31.404022 -25.458008 56.86203 -56.86206 56.86203l-630.0869 0l0 0c-31.404037 0 -56.862038 -25.458008 -56.862038 -56.86203z" fill-rule="evenodd"/><path stroke="#595959" stroke-width="9.089238845144356" stroke-linejoin="round" stroke-linecap="butt" d="m107.918205 122.98205l0 0c0 -31.40403 25.458 -56.86203 56.862038 -56.86203l630.0869 0c15.0807495 0 29.543823 5.9908066 40.20752 16.654503c10.663696 10.663704 16.654541 25.126778 16.654541 40.207527l0 227.44128c0 31.404022 -25.458008 56.86203 -56.86206 56.86203l-630.0869 0l0 0c-31.404037 0 -56.862038 -25.458008 -56.862038 -56.86203z" fill-rule="evenodd"/><path fill="#000000" fill-opacity="0.0" d="m305.31326 329.88773c-29.314941 0 -43.972443 19.338562 -58.629913 38.677155c-14.657486 19.338593 -29.314957 38.677155 -58.62993 38.677155" fill-rule="evenodd"/><path stroke="#595959" stroke-width="9.089238845144356" stroke-linejoin="round" stroke-linecap="butt" d="m305.31326 329.88773c-29.314941 0 -43.972443 19.338562 -58.629913 38.677155c-14.657486 19.338593 -29.314957 38.677155 -58.62993 38.677155" fill-rule="evenodd"/><path fill="#000000" fill-opacity="0.0" d="m653.6747 330.23065c29.409424 0 44.114197 19.338562 58.81891 38.677155c14.704712 19.338593 29.409424 38.677155 58.81891 38.677155" fill-rule="evenodd"/><path stroke="#595959" stroke-width="9.089238845144356" stroke-linejoin="round" stroke-linecap="butt" d="m653.6747 330.23065c29.409424 0 44.114197 19.338562 58.81891 38.677155c14.704712 19.338593 29.409424 38.677155 58.81891 38.677155" fill-rule="evenodd"/><path fill="#000000" fill-opacity="0.0" d="m651.5769 144.12387c28.88971 0 43.334595 -19.50393 57.77948 -39.007866c14.444885 -19.503937 28.88977 -39.007874 57.77954 -39.007874" fill-rule="evenodd"/><path stroke="#595959" stroke-width="9.089238845144356" stroke-linejoin="round" stroke-linecap="butt" d="m651.5769 144.12387c28.88971 0 43.334595 -19.50393 57.77948 -39.007866c14.444885 -19.503937 28.88977 -39.007874 57.77954 -39.007874" fill-rule="evenodd"/><path fill="#000000" fill-opacity="0.0" d="m303.21545 143.78096c-29.409454 0 -44.114166 -19.338585 -58.818893 -38.67717c-14.704727 -19.338585 -29.40944 -38.677162 -58.818893 -38.677162" fill-rule="evenodd"/><path stroke="#595959" stroke-width="9.089238845144356" stroke-linejoin="round" stroke-linecap="butt" d="m303.21545 143.78096c-29.409454 0 -44.114166 -19.338585 -58.818893 -38.67717c-14.704727 -19.338585 -29.40944 -38.677162 -58.818893 -38.677162" fill-rule="evenodd"/><path fill="#000000" fill-opacity="0.0" d="m434.1 454.24844l91.46457 0" fill-rule="evenodd"/><path stroke="#595959" stroke-width="1.136482939632546" stroke-linejoin="round" stroke-linecap="butt" d="m434.09998 454.24844l84.64569 0" fill-rule="evenodd"/><path fill="#595959" stroke="#595959" stroke-width="1.136482939632546" stroke-linecap="butt" d="m518.74567 456.1256l5.1574707 -1.8771667l-5.1574707 -1.8771667z" fill-rule="evenodd"/><path fill="#000000" fill-opacity="0.0" d="m436.0144 462.78873l87.62207 0l0 15.338593l-87.62207 0z" fill-rule="evenodd"/><path fill="#595959" d="m454.03207 474.8207l0 -7.640625l-2.859375 0l0 -1.03125l6.875 0l0 1.03125l-2.875 0l0 7.640625l-1.140625 0zm4.587799 0l0 -6.28125l0.96875 0l0 0.953125q0.359375 -0.671875 0.671875 -0.875q0.3125 -0.21875 0.6875 -0.21875q0.53125 0 1.09375 0.34375l-0.375 0.984375q-0.390625 -0.234375 -0.78125 -0.234375q-0.34375 0 -0.625 0.21875q-0.28125 0.203125 -0.390625 0.578125q-0.1875 0.5625 -0.1875 1.25l0 3.28125l-1.0625 0zm8.141907 -0.78125q-0.59375 0.515625 -1.140625 0.71875q-0.546875 0.203125 -1.171875 0.203125q-1.03125 0 -1.59375 -0.5q-0.546875 -0.515625 -0.546875 -1.296875q0 -0.453125 0.203125 -0.828125q0.21875 -0.390625 0.546875 -0.625q0.34375 -0.234375 0.78125 -0.34375q0.3125 -0.09375 0.9375 -0.171875q1.296875 -0.140625 1.90625 -0.359375q0 -0.21875 0 -0.28125q0 -0.640625 -0.296875 -0.90625q-0.40625 -0.375 -1.21875 -0.375q-0.75 0 -1.109375 0.265625q-0.359375 0.265625 -0.53125 0.9375l-1.03125 -0.140625q0.140625 -0.671875 0.453125 -1.078125q0.328125 -0.421875 0.9375 -0.640625q0.625 -0.21875 1.4375 -0.21875q0.796875 0 1.296875 0.1875q0.515625 0.1875 0.75 0.484375q0.234375 0.28125 0.328125 0.71875q0.0625 0.265625 0.0625 0.984375l0 1.421875q0 1.484375 0.0625 1.875q0.0625 0.390625 0.265625 0.75l-1.109375 0q-0.171875 -0.328125 -0.21875 -0.78125zm-0.078125 -2.375q-0.578125 0.234375 -1.75 0.40625q-0.65625 0.09375 -0.921875 0.21875q-0.265625 0.109375 -0.421875 0.34375q-0.140625 0.21875 -0.140625 0.5q0 0.421875 0.3125 0.71875q0.328125 0.28125 0.953125 0.28125q0.609375 0 1.078125 -0.265625q0.484375 -0.28125 0.71875 -0.75q0.171875 -0.359375 0.171875 -1.0625l0 -0.390625zm2.9690247 3.15625l0 -5.453125l-0.9375 0l0 -0.828125l0.9375 0l0 -0.671875q0 -0.625 0.125 -0.9375q0.140625 -0.40625 0.53125 -0.65625q0.390625 -0.265625 1.09375 -0.265625q0.4375 0 0.984375 0.109375l-0.15625 0.921875q-0.328125 -0.0625 -0.625 -0.0625q-0.484375 0 -0.6875 0.21875q-0.203125 0.203125 -0.203125 0.765625l0 0.578125l1.21875 0l0 0.828125l-1.21875 0l0 5.453125l-1.0625 0zm3.1454468 0l0 -5.453125l-0.9375 0l0 -0.828125l0.9375 0l0 -0.671875q0 -0.625 0.125 -0.9375q0.140625 -0.40625 0.53125 -0.65625q0.390625 -0.265625 1.09375 -0.265625q0.4375 0 0.984375 0.109375l-0.15625 0.921875q-0.328125 -0.0625 -0.625 -0.0625q-0.484375 0 -0.6875 0.21875q-0.203125 0.203125 -0.203125 0.765625l0 0.578125l1.21875 0l0 0.828125l-1.21875 0l0 5.453125l-1.0625 0zm3.11438 -7.4375l0 -1.234375l1.078125 0l0 1.234375l-1.078125 0zm0 7.4375l0 -6.28125l1.078125 0l0 6.28125l-1.078125 0zm6.784088 -2.296875l1.046875 0.125q-0.171875 1.09375 -0.875 1.703125q-0.703125 0.609375 -1.734375 0.609375q-1.28125 0 -2.078125 -0.84375q-0.78125 -0.84375 -0.78125 -2.40625q0 -1.03125 0.328125 -1.78125q0.34375 -0.765625 1.03125 -1.140625q0.703125 -0.390625 1.5 -0.390625q1.03125 0 1.671875 0.515625q0.65625 0.515625 0.84375 1.46875l-1.03125 0.15625q-0.15625 -0.625 -0.53125 -0.9375q-0.375 -0.328125 -0.90625 -0.328125q-0.796875 0 -1.3125 0.578125q-0.5 0.578125 -0.5 1.828125q0 1.265625 0.484375 1.84375q0.484375 0.5625 1.265625 0.5625q0.625 0 1.046875 -0.375q0.421875 -0.390625 0.53125 -1.1875zm5.5753174 2.296875l0 -5.453125l-0.9375 0l0 -0.828125l0.9375 0l0 -0.671875q0 -0.625 0.125 -0.9375q0.140625 -0.40625 0.53125 -0.65625q0.390625 -0.265625 1.09375 -0.265625q0.4375 0 0.984375 0.109375l-0.15625 0.921875q-0.328125 -0.0625 -0.625 -0.0625q-0.484375 0 -0.6875 0.21875q-0.203125 0.203125 -0.203125 0.765625l0 0.578125l1.21875 0l0 0.828125l-1.21875 0l0 5.453125l-1.0625 0zm3.098755 0l0 -8.671875l1.0625 0l0 8.671875l-1.0625 0zm2.3153076 -3.140625q0 -1.75 0.96875 -2.578125q0.8125 -0.703125 1.96875 -0.703125q1.296875 0 2.109375 0.859375q0.828125 0.84375 0.828125 2.328125q0 1.21875 -0.359375 1.921875q-0.359375 0.6875 -1.0625 1.078125q-0.6875 0.375 -1.515625 0.375q-1.3125 0 -2.125 -0.84375q-0.8125 -0.84375 -0.8125 -2.4375zm1.09375 0q0 1.203125 0.515625 1.8125q0.53125 0.59375 1.328125 0.59375q0.796875 0 1.3125 -0.59375q0.53125 -0.609375 0.53125 -1.84375q0 -1.171875 -0.53125 -1.765625q-0.515625 -0.609375 -1.3125 -0.609375q-0.796875 0 -1.328125 0.609375q-0.515625 0.59375 -0.515625 1.796875zm7.187805 3.140625l-1.921875 -6.28125l1.109375 0l1.0 3.625l0.359375 1.34375q0.03125 -0.09375 0.328125 -1.296875l1.0 -3.671875l1.09375 0l0.9375 3.640625l0.3125 1.203125l0.375 -1.21875l1.0625 -3.625l1.046875 0l-1.96875 6.28125l-1.109375 0l-1.0 -3.765625l-0.234375 -1.0625l-1.28125 4.828125l-1.109375 0z" fill-rule="nonzero"/><path fill="#000000" fill-opacity="0.0" d="m175.88245 379.95752l44.566925 0l0 15.338562l-44.566925 0z" fill-rule="evenodd"/><path fill="#ff9900" d="m191.30702 389.20822l1.078125 -0.09375q0.078125 0.640625 0.359375 1.0625q0.28125 0.421875 0.875 0.6875q0.59375 0.25 1.328125 0.25q0.65625 0 1.15625 -0.1875q0.5 -0.203125 0.75 -0.546875q0.25 -0.34375 0.25 -0.75q0 -0.40625 -0.25 -0.703125q-0.234375 -0.3125 -0.765625 -0.515625q-0.359375 -0.140625 -1.5625 -0.421875q-1.1875 -0.28125 -1.65625 -0.546875q-0.625 -0.3125 -0.9375 -0.796875q-0.296875 -0.484375 -0.296875 -1.078125q0 -0.65625 0.375 -1.21875q0.375 -0.578125 1.078125 -0.875q0.71875 -0.296875 1.59375 -0.296875q0.96875 0 1.703125 0.3125q0.734375 0.3125 1.125 0.921875q0.40625 0.59375 0.4375 1.359375l-1.109375 0.078125q-0.078125 -0.828125 -0.59375 -1.25q-0.515625 -0.421875 -1.515625 -0.421875q-1.03125 0 -1.515625 0.390625q-0.46875 0.375 -0.46875 0.921875q0 0.46875 0.328125 0.765625q0.34375 0.296875 1.734375 0.625q1.40625 0.3125 1.921875 0.546875q0.75 0.34375 1.109375 0.890625q0.359375 0.53125 0.359375 1.21875q0 0.703125 -0.390625 1.3125q-0.390625 0.609375 -1.140625 0.953125q-0.734375 0.328125 -1.671875 0.328125q-1.171875 0 -1.96875 -0.328125q-0.796875 -0.34375 -1.25 -1.03125q-0.453125 -0.703125 -0.46875 -1.5625zm12.0456085 2.78125l-1.0625 0l0 -6.78125q-0.390625 0.359375 -1.015625 0.734375q-0.625 0.359375 -1.125 0.546875l0 -1.03125q0.90625 -0.421875 1.5625 -1.015625q0.671875 -0.59375 0.953125 -1.15625l0.6875 0l0 8.703125z" fill-rule="nonzero"/><path fill="#000000" fill-opacity="0.0" d="m736.35126 379.95752l44.566895 0l0 15.338562l-44.566895 0z" fill-rule="evenodd"/><path fill="#ff9900" d="m751.7758 389.20822l1.078125 -0.09375q0.078125 0.640625 0.359375 1.0625q0.28125 0.421875 0.875 0.6875q0.59375 0.25 1.328125 0.25q0.65625 0 1.15625 -0.1875q0.5 -0.203125 0.75 -0.546875q0.25 -0.34375 0.25 -0.75q0 -0.40625 -0.25 -0.703125q-0.234375 -0.3125 -0.765625 -0.515625q-0.359375 -0.140625 -1.5625 -0.421875q-1.1875 -0.28125 -1.65625 -0.546875q-0.625 -0.3125 -0.9375 -0.796875q-0.296875 -0.484375 -0.296875 -1.078125q0 -0.65625 0.375 -1.21875q0.375 -0.578125 1.078125 -0.875q0.71875 -0.296875 1.59375 -0.296875q0.96875 0 1.703125 0.3125q0.734375 0.3125 1.125 0.921875q0.40625 0.59375 0.4375 1.359375l-1.109375 0.078125q-0.078125 -0.828125 -0.59375 -1.25q-0.515625 -0.421875 -1.515625 -0.421875q-1.03125 0 -1.515625 0.390625q-0.46875 0.375 -0.46875 0.921875q0 0.46875 0.328125 0.765625q0.34375 0.296875 1.734375 0.625q1.40625 0.3125 1.921875 0.546875q0.75 0.34375 1.109375 0.890625q0.359375 0.53125 0.359375 1.21875q0 0.703125 -0.390625 1.3125q-0.390625 0.609375 -1.140625 0.953125q-0.734375 0.328125 -1.671875 0.328125q-1.171875 0 -1.96875 -0.328125q-0.796875 -0.34375 -1.25 -1.03125q-0.453125 -0.703125 -0.46875 -1.5625zm13.623718 1.765625l0 1.015625l-5.734375 0q0 -0.390625 0.125 -0.734375q0.21875 -0.59375 0.703125 -1.15625q0.484375 -0.5625 1.390625 -1.3125q1.421875 -1.15625 1.90625 -1.828125q0.5 -0.6875 0.5 -1.296875q0 -0.625 -0.453125 -1.0625q-0.453125 -0.4375 -1.171875 -0.4375q-0.765625 0 -1.234375 0.46875q-0.453125 0.453125 -0.46875 1.28125l-1.09375 -0.125q0.125 -1.21875 0.84375 -1.859375q0.734375 -0.640625 1.96875 -0.640625q1.25 0 1.96875 0.703125q0.734375 0.6875 0.734375 1.703125q0 0.515625 -0.21875 1.03125q-0.203125 0.5 -0.703125 1.0625q-0.484375 0.546875 -1.625 1.515625q-0.96875 0.796875 -1.25 1.09375q-0.265625 0.28125 -0.4375 0.578125l4.25 0z" fill-rule="nonzero"/><path fill="#000000" fill-opacity="0.0" d="m736.3518 77.11287l44.566895 0l0 15.338585l-44.566895 0z" fill-rule="evenodd"/><path fill="#ff9900" d="m751.77637 86.36358l1.078125 -0.09375q0.078125 0.640625 0.359375 1.0625q0.28125 0.421875 0.875 0.6875q0.59375 0.25 1.328125 0.25q0.65625 0 1.15625 -0.1875q0.5 -0.203125 0.75 -0.546875q0.25 -0.34375 0.25 -0.75q0 -0.40625 -0.25 -0.703125q-0.234375 -0.3125 -0.765625 -0.515625q-0.359375 -0.140625 -1.5625 -0.421875q-1.1875 -0.28125 -1.65625 -0.546875q-0.625 -0.3125 -0.9375 -0.796875q-0.296875 -0.484375 -0.296875 -1.078125q0 -0.65625 0.375 -1.21875q0.375 -0.578125 1.078125 -0.875q0.71875 -0.296875 1.59375 -0.296875q0.96875 0 1.703125 0.3125q0.734375 0.3125 1.125 0.921875q0.40625 0.59375 0.4375 1.359375l-1.109375 0.078125q-0.078125 -0.828125 -0.59375 -1.25q-0.515625 -0.421875 -1.515625 -0.421875q-1.03125 0 -1.515625 0.390625q-0.46875 0.375 -0.46875 0.921875q0 0.46875 0.328125 0.765625q0.34375 0.296875 1.734375 0.625q1.40625 0.3125 1.921875 0.546875q0.75 0.34375 1.109375 0.890625q0.359375 0.53125 0.359375 1.21875q0 0.703125 -0.390625 1.3125q-0.390625 0.609375 -1.140625 0.953125q-0.734375 0.328125 -1.671875 0.328125q-1.171875 0 -1.96875 -0.328125q-0.796875 -0.34375 -1.25 -1.03125q-0.453125 -0.703125 -0.46875 -1.5625zm8.045593 0.5l1.0625 -0.15625q0.171875 0.90625 0.609375 1.3125q0.453125 0.390625 1.078125 0.390625q0.75 0 1.265625 -0.515625q0.53125 -0.515625 0.53125 -1.28125q0 -0.734375 -0.484375 -1.203125q-0.484375 -0.484375 -1.21875 -0.484375q-0.296875 0 -0.75 0.109375l0.109375 -0.921875q0.109375 0 0.171875 0q0.6875 0 1.234375 -0.34375q0.546875 -0.359375 0.546875 -1.09375q0 -0.59375 -0.40625 -0.96875q-0.390625 -0.390625 -1.015625 -0.390625q-0.625 0 -1.046875 0.390625q-0.40625 0.390625 -0.53125 1.171875l-1.0625 -0.1875q0.203125 -1.078125 0.890625 -1.65625q0.6875 -0.59375 1.71875 -0.59375q0.71875 0 1.3125 0.3125q0.59375 0.296875 0.90625 0.828125q0.328125 0.515625 0.328125 1.109375q0 0.5625 -0.3125 1.03125q-0.296875 0.453125 -0.890625 0.734375q0.765625 0.171875 1.1875 0.734375q0.4375 0.546875 0.4375 1.390625q0 1.140625 -0.828125 1.9375q-0.828125 0.78125 -2.09375 0.78125q-1.140625 0 -1.90625 -0.671875q-0.75 -0.6875 -0.84375 -1.765625z" fill-rule="nonzero"/><path fill="#000000" fill-opacity="0.0" d="m175.88245 77.11287l44.566925 0l0 15.338585l-44.566925 0z" fill-rule="evenodd"/><path fill="#ff9900" d="m191.30702 86.36358l1.078125 -0.09375q0.078125 0.640625 0.359375 1.0625q0.28125 0.421875 0.875 0.6875q0.59375 0.25 1.328125 0.25q0.65625 0 1.15625 -0.1875q0.5 -0.203125 0.75 -0.546875q0.25 -0.34375 0.25 -0.75q0 -0.40625 -0.25 -0.703125q-0.234375 -0.3125 -0.765625 -0.515625q-0.359375 -0.140625 -1.5625 -0.421875q-1.1875 -0.28125 -1.65625 -0.546875q-0.625 -0.3125 -0.9375 -0.796875q-0.296875 -0.484375 -0.296875 -1.078125q0 -0.65625 0.375 -1.21875q0.375 -0.578125 1.078125 -0.875q0.71875 -0.296875 1.59375 -0.296875q0.96875 0 1.703125 0.3125q0.734375 0.3125 1.125 0.921875q0.40625 0.59375 0.4375 1.359375l-1.109375 0.078125q-0.078125 -0.828125 -0.59375 -1.25q-0.515625 -0.421875 -1.515625 -0.421875q-1.03125 0 -1.515625 0.390625q-0.46875 0.375 -0.46875 0.921875q0 0.46875 0.328125 0.765625q0.34375 0.296875 1.734375 0.625q1.40625 0.3125 1.921875 0.546875q0.75 0.34375 1.109375 0.890625q0.359375 0.53125 0.359375 1.21875q0 0.703125 -0.390625 1.3125q-0.390625 0.609375 -1.140625 0.953125q-0.734375 0.328125 -1.671875 0.328125q-1.171875 0 -1.96875 -0.328125q-0.796875 -0.34375 -1.25 -1.03125q-0.453125 -0.703125 -0.46875 -1.5625zm11.4518585 2.78125l0 -2.078125l-3.765625 0l0 -0.96875l3.953125 -5.625l0.875 0l0 5.625l1.171875 0l0 0.96875l-1.171875 0l0 2.078125l-1.0625 0zm0 -3.046875l0 -3.90625l-2.71875 3.90625l2.71875 0z" fill-rule="nonzero"/><path fill="#000000" fill-opacity="0.0" d="m732.5856 448.6883l31.527588 0" fill-rule="evenodd"/><path stroke="#ffab40" stroke-width="9.089238845144356" stroke-linejoin="round" stroke-linecap="butt" d="m732.5856 448.6883l31.527588 0" fill-rule="evenodd"/><path fill="#000000" fill-opacity="0.0" d="m764.11194 441.03067l87.62207 0l0 15.338562l-87.62207 0z" fill-rule="evenodd"/><path fill="#595959" d="m774.6588 450.28137l1.078125 -0.09375q0.078125 0.640625 0.359375 1.0625q0.28125 0.421875 0.875 0.6875q0.59375 0.25 1.328125 0.25q0.65625 0 1.15625 -0.1875q0.5 -0.203125 0.75 -0.546875q0.25 -0.34375 0.25 -0.75q0 -0.40625 -0.25 -0.703125q-0.234375 -0.3125 -0.765625 -0.515625q-0.359375 -0.140625 -1.5625 -0.421875q-1.1875 -0.28125 -1.65625 -0.546875q-0.625 -0.3125 -0.9375 -0.796875q-0.296875 -0.484375 -0.296875 -1.078125q0 -0.65625 0.375 -1.21875q0.375 -0.578125 1.078125 -0.875q0.71875 -0.296875 1.59375 -0.296875q0.96875 0 1.703125 0.3125q0.734375 0.3125 1.125 0.921875q0.40625 0.59375 0.4375 1.359375l-1.109375 0.078125q-0.078125 -0.828125 -0.59375 -1.25q-0.515625 -0.421875 -1.515625 -0.421875q-1.03125 0 -1.515625 0.390625q-0.46875 0.375 -0.46875 0.921875q0 0.46875 0.328125 0.765625q0.34375 0.296875 1.734375 0.625q1.40625 0.3125 1.921875 0.546875q0.75 0.34375 1.109375 0.890625q0.359375 0.53125 0.359375 1.21875q0 0.703125 -0.390625 1.3125q-0.390625 0.609375 -1.140625 0.953125q-0.734375 0.328125 -1.671875 0.328125q-1.171875 0 -1.96875 -0.328125q-0.796875 -0.34375 -1.25 -1.03125q-0.453125 -0.703125 -0.46875 -1.5625zm9.483093 2.78125l-1.921875 -6.28125l1.109375 0l1.0 3.625l0.359375 1.34375q0.03125 -0.09375 0.328125 -1.296875l1.0 -3.671875l1.09375 0l0.9375 3.640625l0.3125 1.203125l0.375 -1.21875l1.0625 -3.625l1.046875 0l-1.96875 6.28125l-1.109375 0l-1.0 -3.765625l-0.234375 -1.0625l-1.28125 4.828125l-1.109375 0zm7.588806 -7.4375l0 -1.234375l1.078125 0l0 1.234375l-1.078125 0zm0 7.4375l0 -6.28125l1.078125 0l0 6.28125l-1.078125 0zm5.0184326 -0.953125l0.15625 0.9375q-0.453125 0.09375 -0.8125 0.09375q-0.578125 0 -0.90625 -0.171875q-0.3125 -0.1875 -0.4375 -0.484375q-0.125 -0.296875 -0.125 -1.265625l0 -3.609375l-0.78125 0l0 -0.828125l0.78125 0l0 -1.546875l1.046875 -0.640625l0 2.1875l1.078125 0l0 0.828125l-1.078125 0l0 3.671875q0 0.453125 0.0625 0.59375q0.0625 0.125 0.1875 0.203125q0.125 0.078125 0.359375 0.078125q0.171875 0 0.46875 -0.046875zm5.130005 -1.34375l1.046875 0.125q-0.171875 1.09375 -0.875 1.703125q-0.703125 0.609375 -1.734375 0.609375q-1.28125 0 -2.078125 -0.84375q-0.78125 -0.84375 -0.78125 -2.40625q0 -1.03125 0.328125 -1.78125q0.34375 -0.765625 1.03125 -1.140625q0.703125 -0.390625 1.5 -0.390625q1.03125 0 1.671875 0.515625q0.65625 0.515625 0.84375 1.46875l-1.03125 0.15625q-0.15625 -0.625 -0.53125 -0.9375q-0.375 -0.328125 -0.90625 -0.328125q-0.796875 0 -1.3125 0.578125q-0.5 0.578125 -0.5 1.828125q0 1.265625 0.484375 1.84375q0.484375 0.5625 1.265625 0.5625q0.625 0 1.046875 -0.375q0.421875 -0.390625 0.53125 -1.1875zm1.9609375 2.296875l0 -8.671875l1.0625 0l0 3.109375q0.75 -0.859375 1.890625 -0.859375q0.6875 0 1.203125 0.28125q0.515625 0.265625 0.734375 0.75q0.21875 0.484375 0.21875 1.40625l0 3.984375l-1.0625 0l0 -3.984375q0 -0.796875 -0.34375 -1.15625q-0.34375 -0.359375 -0.96875 -0.359375q-0.484375 0 -0.90625 0.25q-0.40625 0.234375 -0.59375 0.65625q-0.171875 0.421875 -0.171875 1.15625l0 3.4375l-1.0625 0zm10.083435 0l0 -6.28125l0.96875 0l0 0.953125q0.359375 -0.671875 0.671875 -0.875q0.3125 -0.21875 0.6875 -0.21875q0.53125 0 1.09375 0.34375l-0.375 0.984375q-0.390625 -0.234375 -0.78125 -0.234375q-0.34375 0 -0.625 0.21875q-0.28125 0.203125 -0.390625 0.578125q-0.1875 0.5625 -0.1875 1.25l0 3.28125l-1.0625 0zm8.141846 -0.78125q-0.59375 0.515625 -1.140625 0.71875q-0.546875 0.203125 -1.171875 0.203125q-1.03125 0 -1.59375 -0.5q-0.546875 -0.515625 -0.546875 -1.296875q0 -0.453125 0.203125 -0.828125q0.21875 -0.390625 0.546875 -0.625q0.34375 -0.234375 0.78125 -0.34375q0.3125 -0.09375 0.9375 -0.171875q1.296875 -0.140625 1.90625 -0.359375q0 -0.21875 0 -0.28125q0 -0.640625 -0.296875 -0.90625q-0.40625 -0.375 -1.21875 -0.375q-0.75 0 -1.109375 0.265625q-0.359375 0.265625 -0.53125 0.9375l-1.03125 -0.140625q0.140625 -0.671875 0.453125 -1.078125q0.328125 -0.421875 0.9375 -0.640625q0.625 -0.21875 1.4375 -0.21875q0.796875 0 1.296875 0.1875q0.515625 0.1875 0.75 0.484375q0.234375 0.28125 0.328125 0.71875q0.0625 0.265625 0.0625 0.984375l0 1.421875q0 1.484375 0.0625 1.875q0.0625 0.390625 0.265625 0.75l-1.109375 0q-0.171875 -0.328125 -0.21875 -0.78125zm-0.078125 -2.375q-0.578125 0.234375 -1.75 0.40625q-0.65625 0.09375 -0.921875 0.21875q-0.265625 0.109375 -0.421875 0.34375q-0.140625 0.21875 -0.140625 0.5q0 0.421875 0.3125 0.71875q0.328125 0.28125 0.953125 0.28125q0.609375 0 1.078125 -0.265625q0.484375 -0.28125 0.71875 -0.75q0.171875 -0.359375 0.171875 -1.0625l0 -0.390625zm2.7190552 -4.28125l0 -1.234375l1.078125 0l0 1.234375l-1.078125 0zm0 7.4375l0 -6.28125l1.078125 0l0 6.28125l-1.078125 0zm2.6746826 0l0 -8.671875l1.0625 0l0 8.671875l-1.0625 0zm2.2841187 -1.875l1.046875 -0.171875q0.09375 0.640625 0.5 0.984375q0.40625 0.328125 1.125 0.328125q0.734375 0 1.09375 -0.296875q0.359375 -0.296875 0.359375 -0.703125q0 -0.359375 -0.3125 -0.5625q-0.21875 -0.140625 -1.09375 -0.359375q-1.171875 -0.296875 -1.625 -0.515625q-0.453125 -0.21875 -0.6875 -0.59375q-0.234375 -0.390625 -0.234375 -0.84375q0 -0.421875 0.1875 -0.78125q0.203125 -0.359375 0.53125 -0.59375q0.25 -0.1875 0.671875 -0.3125q0.4375 -0.125 0.921875 -0.125q0.734375 0 1.296875 0.21875q0.5625 0.203125 0.828125 0.578125q0.265625 0.359375 0.359375 0.96875l-1.03125 0.140625q-0.078125 -0.484375 -0.421875 -0.75q-0.328125 -0.28125 -0.953125 -0.28125q-0.734375 0 -1.046875 0.25q-0.3125 0.234375 -0.3125 0.5625q0 0.203125 0.125 0.375q0.140625 0.171875 0.40625 0.28125q0.171875 0.0625 0.953125 0.265625q1.125 0.3125 1.5625 0.5q0.453125 0.1875 0.703125 0.5625q0.265625 0.359375 0.265625 0.90625q0 0.53125 -0.3125 1.0q-0.3125 0.46875 -0.90625 0.734375q-0.578125 0.25 -1.3125 0.25q-1.234375 0 -1.875 -0.5q-0.640625 -0.515625 -0.8125 -1.515625z" fill-rule="nonzero"/><path fill="#000000" fill-opacity="0.0" d="m732.5856 470.4475l31.527588 0" fill-rule="evenodd"/><path stroke="#4285f4" stroke-width="9.089238845144356" stroke-linejoin="round" stroke-linecap="butt" d="m732.5856 470.4475l31.527588 0" fill-rule="evenodd"/><path fill="#000000" fill-opacity="0.0" d="m764.11194 462.7899l87.62207 0l0 15.338593l-87.62207 0z" fill-rule="evenodd"/><path fill="#595959" d="m781.23694 471.775l1.140625 0.296875q-0.359375 1.40625 -1.296875 2.15625q-0.9375 0.734375 -2.296875 0.734375q-1.390625 0 -2.28125 -0.5625q-0.875 -0.578125 -1.328125 -1.65625q-0.453125 -1.078125 -0.453125 -2.328125q0 -1.34375 0.515625 -2.34375q0.515625 -1.015625 1.46875 -1.53125q0.953125 -0.53125 2.09375 -0.53125q1.3125 0 2.1875 0.671875q0.890625 0.65625 1.25 1.84375l-1.140625 0.265625q-0.296875 -0.9375 -0.875 -1.359375q-0.5625 -0.4375 -1.4375 -0.4375q-1.0 0 -1.671875 0.484375q-0.671875 0.46875 -0.953125 1.28125q-0.265625 0.796875 -0.265625 1.65625q0 1.109375 0.328125 1.9375q0.328125 0.8125 1.0 1.234375q0.6875 0.40625 1.46875 0.40625q0.96875 0 1.625 -0.546875q0.671875 -0.5625 0.921875 -1.671875zm2.41687 3.046875l0 -8.671875l1.0625 0l0 3.109375q0.75 -0.859375 1.890625 -0.859375q0.6875 0 1.203125 0.28125q0.515625 0.265625 0.734375 0.75q0.21875 0.484375 0.21875 1.40625l0 3.984375l-1.0625 0l0 -3.984375q0 -0.796875 -0.34375 -1.15625q-0.34375 -0.359375 -0.96875 -0.359375q-0.484375 0 -0.90625 0.25q-0.40625 0.234375 -0.59375 0.65625q-0.171875 0.421875 -0.171875 1.15625l0 3.4375l-1.0625 0zm11.031555 -2.015625l1.109375 0.125q-0.265625 0.96875 -0.96875 1.5q-0.703125 0.53125 -1.796875 0.53125q-1.375 0 -2.1875 -0.84375q-0.8125 -0.859375 -0.8125 -2.390625q0 -1.578125 0.8125 -2.453125q0.828125 -0.875 2.125 -0.875q1.265625 0 2.0625 0.859375q0.796875 0.859375 0.796875 2.40625q0 0.09375 -0.015625 0.28125l-4.671875 0q0.0625 1.046875 0.578125 1.59375q0.53125 0.546875 1.3125 0.546875q0.59375 0 1.0 -0.296875q0.421875 -0.3125 0.65625 -0.984375zm-3.484375 -1.734375l3.5 0q-0.078125 -0.78125 -0.40625 -1.1875q-0.5 -0.609375 -1.3125 -0.609375q-0.734375 0 -1.234375 0.5q-0.5 0.484375 -0.546875 1.296875zm10.01593 1.453125l1.046875 0.125q-0.171875 1.09375 -0.875 1.703125q-0.703125 0.609375 -1.734375 0.609375q-1.28125 0 -2.078125 -0.84375q-0.78125 -0.84375 -0.78125 -2.40625q0 -1.03125 0.328125 -1.78125q0.34375 -0.765625 1.03125 -1.140625q0.703125 -0.390625 1.5 -0.390625q1.03125 0 1.671875 0.515625q0.65625 0.515625 0.84375 1.46875l-1.03125 0.15625q-0.15625 -0.625 -0.53125 -0.9375q-0.375 -0.328125 -0.90625 -0.328125q-0.796875 0 -1.3125 0.578125q-0.5 0.578125 -0.5 1.828125q0 1.265625 0.484375 1.84375q0.484375 0.5625 1.265625 0.5625q0.625 0 1.046875 -0.375q0.421875 -0.390625 0.53125 -1.1875zm1.9609375 2.296875l0 -8.671875l1.078125 0l0 4.953125l2.515625 -2.5625l1.375 0l-2.40625 2.328125l2.640625 3.953125l-1.3125 0l-2.0625 -3.203125l-0.75 0.71875l0 2.484375l-1.078125 0zm6.0546875 2.40625l0 -8.6875l0.96875 0l0 0.8125q0.34375 -0.46875 0.765625 -0.703125q0.4375 -0.25 1.0625 -0.25q0.796875 0 1.40625 0.421875q0.625 0.40625 0.9375 1.171875q0.3125 0.75 0.3125 1.640625q0 0.96875 -0.34375 1.734375q-0.34375 0.765625 -1.015625 1.1875q-0.65625 0.40625 -1.375 0.40625q-0.53125 0 -0.953125 -0.21875q-0.421875 -0.234375 -0.703125 -0.578125l0 3.0625l-1.0625 0zm0.96875 -5.515625q0 1.21875 0.484375 1.796875q0.5 0.578125 1.1875 0.578125q0.71875 0 1.21875 -0.59375q0.5 -0.609375 0.5 -1.859375q0 -1.203125 -0.5 -1.796875q-0.484375 -0.609375 -1.171875 -0.609375q-0.671875 0 -1.203125 0.640625q-0.515625 0.640625 -0.515625 1.84375zm5.375305 -0.03125q0 -1.75 0.96875 -2.578125q0.8125 -0.703125 1.96875 -0.703125q1.296875 0 2.109375 0.859375q0.828125 0.84375 0.828125 2.328125q0 1.21875 -0.359375 1.921875q-0.359375 0.6875 -1.0625 1.078125q-0.6875 0.375 -1.515625 0.375q-1.3125 0 -2.125 -0.84375q-0.8125 -0.84375 -0.8125 -2.4375zm1.09375 0q0 1.203125 0.515625 1.8125q0.53125 0.59375 1.328125 0.59375q0.796875 0 1.3125 -0.59375q0.53125 -0.609375 0.53125 -1.84375q0 -1.171875 -0.53125 -1.765625q-0.515625 -0.609375 -1.3125 -0.609375q-0.796875 0 -1.328125 0.609375q-0.515625 0.59375 -0.515625 1.796875zm6.031494 -4.296875l0 -1.234375l1.078125 0l0 1.234375l-1.078125 0zm0 7.4375l0 -6.28125l1.078125 0l0 6.28125l-1.078125 0zm2.6903687 0l0 -6.28125l0.953125 0l0 0.890625q0.703125 -1.03125 2.0 -1.03125q0.578125 0 1.046875 0.203125q0.484375 0.203125 0.71875 0.546875q0.234375 0.328125 0.328125 0.78125q0.0625 0.296875 0.0625 1.03125l0 3.859375l-1.0625 0l0 -3.8125q0 -0.65625 -0.125 -0.96875q-0.125 -0.328125 -0.453125 -0.515625q-0.3125 -0.203125 -0.734375 -0.203125q-0.6875 0 -1.1875 0.4375q-0.484375 0.421875 -0.484375 1.640625l0 3.421875l-1.0625 0zm9.062744 -0.953125l0.15625 0.9375q-0.453125 0.09375 -0.8125 0.09375q-0.578125 0 -0.90625 -0.171875q-0.3125 -0.1875 -0.4375 -0.484375q-0.125 -0.296875 -0.125 -1.265625l0 -3.609375l-0.78125 0l0 -0.828125l0.78125 0l0 -1.546875l1.046875 -0.640625l0 2.1875l1.078125 0l0 0.828125l-1.078125 0l0 3.671875q0 0.453125 0.0625 0.59375q0.0625 0.125 0.1875 0.203125q0.125 0.078125 0.359375 0.078125q0.171875 0 0.46875 -0.046875z" fill-rule="nonzero"/><path fill="#000000" fill-opacity="0.0" d="m652.9545 144.12387l-350.04724 -0.6614075" fill-rule="evenodd"/><path stroke="#595959" stroke-width="9.089238845144356" stroke-linejoin="round" stroke-linecap="butt" d="m652.9545 144.12387l-350.04724 -0.6614075" fill-rule="evenodd"/><path fill="#000000" fill-opacity="0.0" d="m303.9356 329.88773l350.04724 0.6614075" fill-rule="evenodd"/><path stroke="#595959" stroke-width="9.089238845144356" stroke-linejoin="round" stroke-linecap="butt" d="m303.9356 329.88773l350.04724 0.6614075" fill-rule="evenodd"/><path fill="#000000" fill-opacity="0.0" d="m72.93701 376.88013l44.566925 0l0 15.338593l-44.566925 0z" fill-rule="evenodd"/><path fill="#4285f4" d="m94.60564 385.86523l1.140625 0.296875q-0.359375 1.40625 -1.296875 2.15625q-0.9375 0.734375 -2.296875 0.734375q-1.390625 0 -2.28125 -0.5625q-0.875 -0.578125 -1.328125 -1.65625q-0.453125 -1.078125 -0.453125 -2.328125q0 -1.34375 0.515625 -2.34375q0.515625 -1.015625 1.46875 -1.53125q0.953125 -0.53125 2.09375 -0.53125q1.3125 0 2.1875 0.671875q0.890625 0.65625 1.25 1.84375l-1.140625 0.265625q-0.296875 -0.9375 -0.875 -1.359375q-0.5625 -0.4375 -1.4375 -0.4375q-1.0 0 -1.671875 0.484375q-0.671875 0.46875 -0.953125 1.28125q-0.265625 0.796875 -0.265625 1.65625q0 1.109375 0.328125 1.9375q0.328125 0.8125 1.0 1.234375q0.6875 0.40625 1.46875 0.40625q0.96875 0 1.625 -0.546875q0.671875 -0.5625 0.921875 -1.671875zm7.6512604 -3.5l-1.0625 0.078125q-0.140625 -0.625 -0.40625 -0.90625q-0.421875 -0.453125 -1.0625 -0.453125q-0.515625 0 -0.890625 0.28125q-0.5 0.375 -0.796875 1.078125q-0.28125 0.703125 -0.296875 2.0q0.375 -0.59375 0.9375 -0.875q0.5625 -0.28125 1.171875 -0.28125q1.0625 0 1.796875 0.78125q0.75 0.78125 0.75 2.03125q0 0.8125 -0.359375 1.515625q-0.34375 0.703125 -0.953125 1.078125q-0.609375 0.359375 -1.390625 0.359375q-1.328125 0 -2.171875 -0.96875q-0.84375 -0.984375 -0.84375 -3.234375q0 -2.5 0.9375 -3.640625q0.796875 -1.0 2.171875 -1.0q1.03125 0 1.671875 0.578125q0.65625 0.5625 0.796875 1.578125zm-4.359375 3.734375q0 0.546875 0.234375 1.0625q0.234375 0.5 0.65625 0.765625q0.421875 0.25 0.890625 0.25q0.671875 0 1.15625 -0.53125q0.484375 -0.546875 0.484375 -1.484375q0 -0.890625 -0.484375 -1.40625q-0.46875 -0.53125 -1.203125 -0.53125q-0.71875 0 -1.234375 0.53125q-0.5 0.515625 -0.5 1.34375z" fill-rule="nonzero"/><path fill="#000000" fill-opacity="0.0" d="m457.2009 379.95752l44.566925 0l0 15.338562l-44.566925 0z" fill-rule="evenodd"/><path fill="#4285f4" d="m478.86954 388.9426l1.140625 0.296875q-0.359375 1.40625 -1.296875 2.15625q-0.9375 0.734375 -2.296875 0.734375q-1.390625 0 -2.28125 -0.5625q-0.875 -0.578125 -1.328125 -1.65625q-0.453125 -1.078125 -0.453125 -2.328125q0 -1.34375 0.515625 -2.34375q0.515625 -1.015625 1.46875 -1.53125q0.953125 -0.53125 2.09375 -0.53125q1.3125 0 2.1875 0.671875q0.890625 0.65625 1.25 1.84375l-1.140625 0.265625q-0.296875 -0.9375 -0.875 -1.359375q-0.5625 -0.4375 -1.4375 -0.4375q-1.0 0 -1.671875 0.484375q-0.671875 0.46875 -0.953125 1.28125q-0.265625 0.796875 -0.265625 1.65625q0 1.109375 0.328125 1.9375q0.328125 0.8125 1.0 1.234375q0.6875 0.40625 1.46875 0.40625q0.96875 0 1.625 -0.546875q0.671875 -0.5625 0.921875 -1.671875zm6.13562 3.046875l-1.0625 0l0 -6.78125q-0.390625 0.359375 -1.015625 0.734375q-0.625 0.359375 -1.125 0.546875l0 -1.03125q0.90625 -0.421875 1.5625 -1.015625q0.671875 -0.59375 0.953125 -1.15625l0.6875 0l0 8.703125z" fill-rule="nonzero"/><path fill="#000000" fill-opacity="0.0" d="m457.53787 303.273l44.566925 0l0 15.338593l-44.566925 0z" fill-rule="evenodd"/><path fill="#4285f4" d="m479.20648 312.2581l1.140625 0.296875q-0.359375 1.40625 -1.296875 2.15625q-0.9375 0.734375 -2.296875 0.734375q-1.390625 0 -2.28125 -0.5625q-0.875 -0.578125 -1.328125 -1.65625q-0.453125 -1.078125 -0.453125 -2.328125q0 -1.34375 0.515625 -2.34375q0.515625 -1.015625 1.46875 -1.53125q0.953125 -0.53125 2.09375 -0.53125q1.3125 0 2.1875 0.671875q0.890625 0.65625 1.25 1.84375l-1.140625 0.265625q-0.296875 -0.9375 -0.875 -1.359375q-0.5625 -0.4375 -1.4375 -0.4375q-1.0 0 -1.671875 0.484375q-0.671875 0.46875 -0.953125 1.28125q-0.265625 0.796875 -0.265625 1.65625q0 1.109375 0.328125 1.9375q0.328125 0.8125 1.0 1.234375q0.6875 0.40625 1.46875 0.40625q0.96875 0 1.625 -0.546875q0.671875 -0.5625 0.921875 -1.671875zm2.1981506 -4.484375l0 -1.03125l5.609375 0l0 0.828125q-0.828125 0.890625 -1.640625 2.359375q-0.8125 1.453125 -1.265625 2.984375q-0.3125 1.09375 -0.40625 2.390625l-1.09375 0q0.015625 -1.015625 0.40625 -2.46875q0.390625 -1.453125 1.109375 -2.796875q0.71875 -1.34375 1.515625 -2.265625l-4.234375 0z" fill-rule="nonzero"/><path fill="#000000" fill-opacity="0.0" d="m842.49725 377.1082l44.566895 0l0 15.338562l-44.566895 0z" fill-rule="evenodd"/><path fill="#4285f4" d="m864.16583 386.09326l1.140625 0.296875q-0.359375 1.40625 -1.296875 2.15625q-0.9375 0.734375 -2.296875 0.734375q-1.390625 0 -2.28125 -0.5625q-0.875 -0.578125 -1.328125 -1.65625q-0.453125 -1.078125 -0.453125 -2.328125q0 -1.34375 0.515625 -2.34375q0.515625 -1.015625 1.46875 -1.53125q0.953125 -0.53125 2.09375 -0.53125q1.3125 0 2.1875 0.671875q0.890625 0.65625 1.25 1.84375l-1.140625 0.265625q-0.296875 -0.9375 -0.875 -1.359375q-0.5625 -0.4375 -1.4375 -0.4375q-1.0 0 -1.671875 0.484375q-0.671875 0.46875 -0.953125 1.28125q-0.265625 0.796875 -0.265625 1.65625q0 1.109375 0.328125 1.9375q0.328125 0.8125 1.0 1.234375q0.6875 0.40625 1.46875 0.40625q0.96875 0 1.625 -0.546875q0.671875 -0.5625 0.921875 -1.671875zm7.713806 2.03125l0 1.015625l-5.734375 0q0 -0.390625 0.125 -0.734375q0.21875 -0.59375 0.703125 -1.15625q0.484375 -0.5625 1.390625 -1.3125q1.421875 -1.15625 1.90625 -1.828125q0.5 -0.6875 0.5 -1.296875q0 -0.625 -0.453125 -1.0625q-0.453125 -0.4375 -1.171875 -0.4375q-0.765625 0 -1.234375 0.46875q-0.453125 0.453125 -0.46875 1.28125l-1.09375 -0.125q0.125 -1.21875 0.84375 -1.859375q0.734375 -0.640625 1.96875 -0.640625q1.25 0 1.96875 0.703125q0.734375 0.6875 0.734375 1.703125q0 0.515625 -0.21875 1.03125q-0.203125 0.5 -0.703125 1.0625q-0.484375 0.546875 -1.625 1.515625q-0.96875 0.796875 -1.25 1.09375q-0.265625 0.28125 -0.4375 0.578125l4.25 0z" fill-rule="nonzero"/><path fill="#000000" fill-opacity="0.0" d="m842.49725 80.980446l44.566895 0l0 15.338585l-44.566895 0z" fill-rule="evenodd"/><path fill="#4285f4" d="m864.16583 89.96554l1.140625 0.296875q-0.359375 1.40625 -1.296875 2.15625q-0.9375 0.734375 -2.296875 0.734375q-1.390625 0 -2.28125 -0.5625q-0.875 -0.578125 -1.328125 -1.65625q-0.453125 -1.078125 -0.453125 -2.328125q0 -1.34375 0.515625 -2.34375q0.515625 -1.015625 1.46875 -1.53125q0.953125 -0.53125 2.09375 -0.53125q1.3125 0 2.1875 0.671875q0.890625 0.65625 1.25 1.84375l-1.140625 0.265625q-0.296875 -0.9375 -0.875 -1.359375q-0.5625 -0.4375 -1.4375 -0.4375q-1.0 0 -1.671875 0.484375q-0.671875 0.46875 -0.953125 1.28125q-0.265625 0.796875 -0.265625 1.65625q0 1.109375 0.328125 1.9375q0.328125 0.8125 1.0 1.234375q0.6875 0.40625 1.46875 0.40625q0.96875 0 1.625 -0.546875q0.671875 -0.5625 0.921875 -1.671875zm2.1356812 0.765625l1.0625 -0.15625q0.171875 0.90625 0.609375 1.3125q0.453125 0.390625 1.078125 0.390625q0.75 0 1.265625 -0.515625q0.53125 -0.515625 0.53125 -1.28125q0 -0.734375 -0.484375 -1.203125q-0.484375 -0.484375 -1.21875 -0.484375q-0.296875 0 -0.75 0.109375l0.109375 -0.921875q0.109375 0 0.171875 0q0.6875 0 1.234375 -0.34375q0.546875 -0.359375 0.546875 -1.09375q0 -0.59375 -0.40625 -0.96875q-0.390625 -0.390625 -1.015625 -0.390625q-0.625 0 -1.046875 0.390625q-0.40625 0.390625 -0.53125 1.171875l-1.0625 -0.1875q0.203125 -1.078125 0.890625 -1.65625q0.6875 -0.59375 1.71875 -0.59375q0.71875 0 1.3125 0.3125q0.59375 0.296875 0.90625 0.828125q0.328125 0.515625 0.328125 1.109375q0 0.5625 -0.3125 1.03125q-0.296875 0.453125 -0.890625 0.734375q0.765625 0.171875 1.1875 0.734375q0.4375 0.546875 0.4375 1.390625q0 1.140625 -0.828125 1.9375q-0.828125 0.78125 -2.09375 0.78125q-1.140625 0 -1.90625 -0.671875q-0.75 -0.6875 -0.84375 -1.765625z" fill-rule="nonzero"/><path fill="#000000" fill-opacity="0.0" d="m458.16473 40.11293l44.566956 0l0 15.338581l-44.566956 0z" fill-rule="evenodd"/><path fill="#4285f4" d="m479.83337 49.09802l1.140625 0.296875q-0.359375 1.40625 -1.296875 2.15625q-0.9375 0.734375 -2.296875 0.734375q-1.390625 0 -2.28125 -0.5625q-0.875 -0.578125 -1.328125 -1.65625q-0.453125 -1.078125 -0.453125 -2.328125q0 -1.34375 0.515625 -2.34375q0.515625 -1.015625 1.46875 -1.53125q0.953125 -0.53125 2.09375 -0.53125q1.3125 0 2.1875 0.671875q0.890625 0.65625 1.25 1.84375l-1.140625 0.265625q-0.296875 -0.9375 -0.875 -1.359375q-0.5625 -0.4375 -1.4375 -0.4375q-1.0 0 -1.671875 0.484375q-0.671875 0.46875 -0.953125 1.28125q-0.265625 0.796875 -0.265625 1.65625q0 1.109375 0.328125 1.9375q0.328125 0.8125 1.0 1.234375q0.6875 0.40625 1.46875 0.40625q0.96875 0 1.625 -0.546875q0.671875 -0.5625 0.921875 -1.671875zm5.5419006 3.046875l0 -2.078125l-3.765625 0l0 -0.96875l3.953125 -5.625l0.875 0l0 5.625l1.171875 0l0 0.96875l-1.171875 0l0 2.078125l-1.0625 0zm0 -3.046875l0 -3.90625l-2.71875 3.90625l2.71875 0z" fill-rule="nonzero"/><path fill="#000000" fill-opacity="0.0" d="m458.16473 117.3989l44.566956 0l0 15.338585l-44.566956 0z" fill-rule="evenodd"/><path fill="#4285f4" d="m479.83337 126.383995l1.140625 0.296875q-0.359375 1.4062424 -1.296875 2.1562424q-0.9375 0.734375 -2.296875 0.734375q-1.390625 0 -2.28125 -0.5625q-0.875 -0.578125 -1.328125 -1.6562424q-0.453125 -1.078125 -0.453125 -2.328125q0 -1.34375 0.515625 -2.34375q0.515625 -1.015625 1.46875 -1.53125q0.953125 -0.53125 2.09375 -0.53125q1.3125 0 2.1875 0.671875q0.890625 0.65625 1.25 1.84375l-1.140625 0.265625q-0.296875 -0.9375 -0.875 -1.359375q-0.5625 -0.4375 -1.4375 -0.4375q-1.0 0 -1.671875 0.484375q-0.671875 0.46875 -0.953125 1.28125q-0.265625 0.796875 -0.265625 1.65625q0 1.109375 0.328125 1.9375q0.328125 0.8125 1.0 1.2343674q0.6875 0.40625 1.46875 0.40625q0.96875 0 1.625 -0.546875q0.671875 -0.5624924 0.921875 -1.6718674zm3.7606506 -1.65625q-0.65625 -0.234375 -0.984375 -0.6875q-0.3125 -0.453125 -0.3125 -1.078125q0 -0.953125 0.671875 -1.59375q0.6875 -0.640625 1.8125 -0.640625q1.140625 0 1.828125 0.65625q0.6875 0.65625 0.6875 1.609375q0 0.609375 -0.3125 1.0625q-0.3125 0.4375 -0.953125 0.671875q0.796875 0.265625 1.203125 0.84375q0.421875 0.578125 0.421875 1.375q0 1.1249924 -0.796875 1.8749924q-0.78125 0.75 -2.0625 0.75q-1.28125 0 -2.078125 -0.75q-0.78125 -0.765625 -0.78125 -1.8906174q0 -0.859375 0.421875 -1.421875q0.4375 -0.578125 1.234375 -0.78125zm-0.21875 -1.796875q0 0.609375 0.390625 1.0q0.40625 0.390625 1.046875 0.390625q0.609375 0 1.0 -0.390625q0.390625 -0.390625 0.390625 -0.9375q0 -0.59375 -0.40625 -0.984375q-0.40625 -0.40625 -1.0 -0.40625q-0.609375 0 -1.015625 0.390625q-0.40625 0.390625 -0.40625 0.9375zm-0.34375 4.0q0 0.453125 0.21875 0.890625q0.21875 0.42186737 0.640625 0.6562424q0.4375 0.21875 0.921875 0.21875q0.765625 0 1.25 -0.484375q0.5 -0.48436737 0.5 -1.2499924q0 -0.765625 -0.515625 -1.265625q-0.5 -0.5 -1.265625 -0.5q-0.75 0 -1.25 0.5q-0.5 0.484375 -0.5 1.234375z" fill-rule="nonzero"/><path fill="#000000" fill-opacity="0.0" d="m73.65405 80.75382l44.566933 0l0 15.338577l-44.566933 0z" fill-rule="evenodd"/><path fill="#4285f4" d="m95.322685 89.73891l1.140625 0.296875q-0.359375 1.40625 -1.296875 2.15625q-0.9375 0.734375 -2.296875 0.734375q-1.390625 0 -2.28125 -0.5625q-0.875 -0.578125 -1.328125 -1.65625q-0.453125 -1.078125 -0.453125 -2.328125q0 -1.34375 0.515625 -2.34375q0.515625 -1.015625 1.46875 -1.53125q0.953125 -0.53125 2.09375 -0.53125q1.3125 0 2.1875 0.671875q0.890625 0.65625 1.25 1.84375l-1.140625 0.265625q-0.296875 -0.9375 -0.875 -1.359375q-0.5625 -0.4375 -1.4375 -0.4375q-1.0 0 -1.671875 0.484375q-0.671875 0.46875 -0.953125 1.28125q-0.265625 0.796875 -0.265625 1.65625q0 1.109375 0.328125 1.9375q0.328125 0.8125 1.0 1.234375q0.6875 0.40625 1.46875 0.40625q0.96875 0 1.625 -0.546875q0.671875 -0.5625 0.921875 -1.671875zm2.1200104 0.78125l1.125 -0.09375q0.125 0.8125 0.578125 1.21875q0.453125 0.40625 1.078125 0.40625q0.78125 0 1.3125 -0.578125q0.53125 -0.578125 0.53125 -1.53125q0 -0.90625 -0.515625 -1.4375q-0.515625 -0.53125 -1.34375 -0.53125q-0.515625 0 -0.9375 0.234375q-0.40625 0.234375 -0.640625 0.609375l-1.0 -0.125l0.84375 -4.453125l4.3125 0l0 1.015625l-3.453125 0l-0.46875 2.328125q0.78125 -0.546875 1.625 -0.546875q1.140625 0 1.921875 0.796875q0.78125 0.78125 0.78125 2.015625q0 1.171875 -0.6875 2.03125q-0.828125 1.046875 -2.28125 1.046875q-1.171875 0 -1.921875 -0.65625q-0.75 -0.65625 -0.859375 -1.75z" fill-rule="nonzero"/><path fill="#000000" fill-opacity="0.0" d="m436.0144 157.72827l87.62207 0l0 15.338577l-87.62207 0z" fill-rule="evenodd"/><path fill="#595959" d="m456.4728 166.97897l1.078125 -0.09375q0.078125 0.640625 0.359375 1.0625q0.28125 0.421875 0.875 0.6875q0.59375 0.25 1.328125 0.25q0.65625 0 1.15625 -0.1875q0.5 -0.203125 0.75 -0.546875q0.25 -0.34375 0.25 -0.75q0 -0.40625 -0.25 -0.703125q-0.234375 -0.3125 -0.765625 -0.515625q-0.359375 -0.140625 -1.5625 -0.421875q-1.1875 -0.28125 -1.65625 -0.546875q-0.625 -0.3125 -0.9375 -0.796875q-0.296875 -0.484375 -0.296875 -1.078125q0 -0.65625 0.375 -1.21875q0.375 -0.578125 1.078125 -0.875q0.71875 -0.296875 1.59375 -0.296875q0.96875 0 1.703125 0.3125q0.734375 0.3125 1.125 0.921875q0.40625 0.59375 0.4375 1.359375l-1.109375 0.078125q-0.078125 -0.828125 -0.59375 -1.25q-0.515625 -0.421875 -1.515625 -0.421875q-1.03125 0 -1.515625 0.390625q-0.46875 0.375 -0.46875 0.921875q0 0.46875 0.328125 0.765625q0.34375 0.296875 1.734375 0.625q1.40625 0.3125 1.921875 0.546875q0.75 0.34375 1.109375 0.890625q0.359375 0.53125 0.359375 1.21875q0 0.703125 -0.390625 1.3125q-0.390625 0.609375 -1.140625 0.953125q-0.734375 0.328125 -1.671875 0.328125q-1.171875 0 -1.96875 -0.328125q-0.796875 -0.34375 -1.25 -1.03125q-0.453125 -0.703125 -0.46875 -1.5625zm10.654999 1.828125l0.15625 0.9375q-0.453125 0.09375 -0.8125 0.09375q-0.578125 0 -0.90625 -0.171875q-0.3125 -0.1875 -0.4375 -0.484375q-0.125 -0.296875 -0.125 -1.265625l0 -3.609375l-0.78125 0l0 -0.828125l0.78125 0l0 -1.546875l1.046875 -0.640625l0 2.1875l1.078125 0l0 0.828125l-1.078125 0l0 3.671875q0 0.453125 0.0625 0.59375q0.0625 0.125 0.1875 0.203125q0.125 0.078125 0.359375 0.078125q0.171875 0 0.46875 -0.046875zm5.130005 0.171875q-0.59375 0.515625 -1.140625 0.71875q-0.546875 0.203125 -1.171875 0.203125q-1.03125 0 -1.59375 -0.5q-0.546875 -0.515625 -0.546875 -1.296875q0 -0.453125 0.203125 -0.828125q0.21875 -0.390625 0.546875 -0.625q0.34375 -0.234375 0.78125 -0.34375q0.3125 -0.09375 0.9375 -0.171875q1.296875 -0.140625 1.90625 -0.359375q0 -0.21875 0 -0.28125q0 -0.640625 -0.296875 -0.90625q-0.40625 -0.375 -1.21875 -0.375q-0.75 0 -1.109375 0.265625q-0.359375 0.265625 -0.53125 0.9375l-1.03125 -0.140625q0.140625 -0.671875 0.453125 -1.078125q0.328125 -0.421875 0.9375 -0.640625q0.625 -0.21875 1.4375 -0.21875q0.796875 0 1.296875 0.1875q0.515625 0.1875 0.75 0.484375q0.234375 0.28125 0.328125 0.71875q0.0625 0.265625 0.0625 0.984375l0 1.421875q0 1.484375 0.0625 1.875q0.0625 0.390625 0.265625 0.75l-1.109375 0q-0.171875 -0.328125 -0.21875 -0.78125zm-0.078125 -2.375q-0.578125 0.234375 -1.75 0.40625q-0.65625 0.09375 -0.921875 0.21875q-0.265625 0.109375 -0.421875 0.34375q-0.140625 0.21875 -0.140625 0.5q0 0.421875 0.3125 0.71875q0.328125 0.28125 0.953125 0.28125q0.609375 0 1.078125 -0.265625q0.484375 -0.28125 0.71875 -0.75q0.171875 -0.359375 0.171875 -1.0625l0 -0.390625zm5.0471497 2.203125l0.15625 0.9375q-0.453125 0.09375 -0.8125 0.09375q-0.578125 0 -0.90625 -0.171875q-0.3125 -0.1875 -0.4375 -0.484375q-0.125 -0.296875 -0.125 -1.265625l0 -3.609375l-0.78125 0l0 -0.828125l0.78125 0l0 -1.546875l1.046875 -0.640625l0 2.1875l1.078125 0l0 0.828125l-1.078125 0l0 3.671875q0 0.453125 0.0625 0.59375q0.0625 0.125 0.1875 0.203125q0.125 0.078125 0.359375 0.078125q0.171875 0 0.46875 -0.046875zm1.0362549 -6.484375l0 -1.234375l1.078125 0l0 1.234375l-1.078125 0zm0 7.4375l0 -6.28125l1.078125 0l0 6.28125l-1.078125 0zm2.2997131 -3.140625q0 -1.75 0.96875 -2.578125q0.8125 -0.703125 1.96875 -0.703125q1.296875 0 2.109375 0.859375q0.828125 0.84375 0.828125 2.328125q0 1.21875 -0.359375 1.921875q-0.359375 0.6875 -1.0625 1.078125q-0.6875 0.375 -1.515625 0.375q-1.3125 0 -2.125 -0.84375q-0.8125 -0.84375 -0.8125 -2.4375zm1.09375 0q0 1.203125 0.515625 1.8125q0.53125 0.59375 1.328125 0.59375q0.796875 0 1.3125 -0.59375q0.53125 -0.609375 0.53125 -1.84375q0 -1.171875 -0.53125 -1.765625q-0.515625 -0.609375 -1.3125 -0.609375q-0.796875 0 -1.328125 0.609375q-0.515625 0.59375 -0.515625 1.796875zm6.0315247 3.140625l0 -6.28125l0.953125 0l0 0.890625q0.703125 -1.03125 2.0 -1.03125q0.578125 0 1.046875 0.203125q0.484375 0.203125 0.71875 0.546875q0.234375 0.328125 0.328125 0.78125q0.0625 0.296875 0.0625 1.03125l0 3.859375l-1.0625 0l0 -3.8125q0 -0.65625 -0.125 -0.96875q-0.125 -0.328125 -0.453125 -0.515625q-0.3125 -0.203125 -0.734375 -0.203125q-0.6875 0 -1.1875 0.4375q-0.484375 0.421875 -0.484375 1.640625l0 3.421875l-1.0625 0zm15.395905 -1.015625l0 1.015625l-5.7343445 0q0 -0.390625 0.125 -0.734375q0.21875 -0.59375 0.703125 -1.15625q0.484375 -0.5625 1.390625 -1.3125q1.4218445 -1.15625 1.9062195 -1.828125q0.5 -0.6875 0.5 -1.296875q0 -0.625 -0.453125 -1.0625q-0.453125 -0.4375 -1.171875 -0.4375q-0.7655945 0 -1.2343445 0.46875q-0.453125 0.453125 -0.46875 1.28125l-1.09375 -0.125q0.125 -1.21875 0.84375 -1.859375q0.734375 -0.640625 1.9687195 -0.640625q1.25 0 1.96875 0.703125q0.734375 0.6875 0.734375 1.703125q0 0.515625 -0.21875 1.03125q-0.203125 0.5 -0.703125 1.0625q-0.484375 0.546875 -1.625 1.515625q-0.9687195 0.796875 -1.2499695 1.09375q-0.265625 0.28125 -0.4375 0.578125l4.2499695 0z" fill-rule="nonzero"/><path fill="#000000" fill-opacity="0.0" d="m435.67743 344.2547l87.62207 0l0 15.338593l-87.62207 0z" fill-rule="evenodd"/><path fill="#595959" d="m456.13586 353.50543l1.078125 -0.09375q0.078125 0.640625 0.359375 1.0625q0.28125 0.421875 0.875 0.6875q0.59375 0.25 1.328125 0.25q0.65625 0 1.15625 -0.1875q0.5 -0.203125 0.75 -0.546875q0.25 -0.34375 0.25 -0.75q0 -0.40625 -0.25 -0.703125q-0.234375 -0.3125 -0.765625 -0.515625q-0.359375 -0.140625 -1.5625 -0.421875q-1.1875 -0.28125 -1.65625 -0.546875q-0.625 -0.3125 -0.9375 -0.796875q-0.296875 -0.484375 -0.296875 -1.078125q0 -0.65625 0.375 -1.21875q0.375 -0.578125 1.078125 -0.875q0.71875 -0.296875 1.59375 -0.296875q0.96875 0 1.703125 0.3125q0.734375 0.3125 1.125 0.921875q0.40625 0.59375 0.4375 1.359375l-1.109375 0.078125q-0.078125 -0.828125 -0.59375 -1.25q-0.515625 -0.421875 -1.515625 -0.421875q-1.03125 0 -1.515625 0.390625q-0.46875 0.375 -0.46875 0.921875q0 0.46875 0.328125 0.765625q0.34375 0.296875 1.734375 0.625q1.40625 0.3125 1.921875 0.546875q0.75 0.34375 1.109375 0.890625q0.359375 0.53125 0.359375 1.21875q0 0.703125 -0.390625 1.3125q-0.390625 0.609375 -1.140625 0.953125q-0.734375 0.328125 -1.671875 0.328125q-1.171875 0 -1.96875 -0.328125q-0.796875 -0.34375 -1.25 -1.03125q-0.453125 -0.703125 -0.46875 -1.5625zm10.654968 1.828125l0.15625 0.9375q-0.453125 0.09375 -0.8125 0.09375q-0.578125 0 -0.90625 -0.171875q-0.3125 -0.1875 -0.4375 -0.484375q-0.125 -0.296875 -0.125 -1.265625l0 -3.609375l-0.78125 0l0 -0.828125l0.78125 0l0 -1.546875l1.046875 -0.640625l0 2.1875l1.078125 0l0 0.828125l-1.078125 0l0 3.671875q0 0.453125 0.0625 0.59375q0.0625 0.125 0.1875 0.203125q0.125 0.078125 0.359375 0.078125q0.171875 0 0.46875 -0.046875zm5.130005 0.171875q-0.59375 0.515625 -1.140625 0.71875q-0.546875 0.203125 -1.171875 0.203125q-1.03125 0 -1.59375 -0.5q-0.546875 -0.515625 -0.546875 -1.296875q0 -0.453125 0.203125 -0.828125q0.21875 -0.390625 0.546875 -0.625q0.34375 -0.234375 0.78125 -0.34375q0.3125 -0.09375 0.9375 -0.171875q1.296875 -0.140625 1.90625 -0.359375q0 -0.21875 0 -0.28125q0 -0.640625 -0.296875 -0.90625q-0.40625 -0.375 -1.21875 -0.375q-0.75 0 -1.109375 0.265625q-0.359375 0.265625 -0.53125 0.9375l-1.03125 -0.140625q0.140625 -0.671875 0.453125 -1.078125q0.328125 -0.421875 0.9375 -0.640625q0.625 -0.21875 1.4375 -0.21875q0.796875 0 1.296875 0.1875q0.515625 0.1875 0.75 0.484375q0.234375 0.28125 0.328125 0.71875q0.0625 0.265625 0.0625 0.984375l0 1.421875q0 1.484375 0.0625 1.875q0.0625 0.390625 0.265625 0.75l-1.109375 0q-0.171875 -0.328125 -0.21875 -0.78125zm-0.078125 -2.375q-0.578125 0.234375 -1.75 0.40625q-0.65625 0.09375 -0.921875 0.21875q-0.265625 0.109375 -0.421875 0.34375q-0.140625 0.21875 -0.140625 0.5q0 0.421875 0.3125 0.71875q0.328125 0.28125 0.953125 0.28125q0.609375 0 1.078125 -0.265625q0.484375 -0.28125 0.71875 -0.75q0.171875 -0.359375 0.171875 -1.0625l0 -0.390625zm5.04718 2.203125l0.15625 0.9375q-0.453125 0.09375 -0.8125 0.09375q-0.578125 0 -0.90625 -0.171875q-0.3125 -0.1875 -0.4375 -0.484375q-0.125 -0.296875 -0.125 -1.265625l0 -3.609375l-0.78125 0l0 -0.828125l0.78125 0l0 -1.546875l1.046875 -0.640625l0 2.1875l1.078125 0l0 0.828125l-1.078125 0l0 3.671875q0 0.453125 0.0625 0.59375q0.0625 0.125 0.1875 0.203125q0.125 0.078125 0.359375 0.078125q0.171875 0 0.46875 -0.046875zm1.0362549 -6.484375l0 -1.234375l1.078125 0l0 1.234375l-1.078125 0zm0 7.4375l0 -6.28125l1.078125 0l0 6.28125l-1.078125 0zm2.2996826 -3.140625q0 -1.75 0.96875 -2.578125q0.8125 -0.703125 1.96875 -0.703125q1.296875 0 2.109375 0.859375q0.828125 0.84375 0.828125 2.328125q0 1.21875 -0.359375 1.921875q-0.359375 0.6875 -1.0625 1.078125q-0.6875 0.375 -1.515625 0.375q-1.3125 0 -2.125 -0.84375q-0.8125 -0.84375 -0.8125 -2.4375zm1.09375 0q0 1.203125 0.515625 1.8125q0.53125 0.59375 1.328125 0.59375q0.796875 0 1.3125 -0.59375q0.53125 -0.609375 0.53125 -1.84375q0 -1.171875 -0.53125 -1.765625q-0.515625 -0.609375 -1.3125 -0.609375q-0.796875 0 -1.328125 0.609375q-0.515625 0.59375 -0.515625 1.796875zm6.031555 3.140625l0 -6.28125l0.953125 0l0 0.890625q0.703125 -1.03125 2.0 -1.03125q0.578125 0 1.046875 0.203125q0.484375 0.203125 0.71875 0.546875q0.234375 0.328125 0.328125 0.78125q0.0625 0.296875 0.0625 1.03125l0 3.859375l-1.0625 0l0 -3.8125q0 -0.65625 -0.125 -0.96875q-0.125 -0.328125 -0.453125 -0.515625q-0.3125 -0.203125 -0.734375 -0.203125q-0.6875 0 -1.1875 0.4375q-0.484375 0.421875 -0.484375 1.640625l0 3.421875l-1.0625 0zm13.81778 0l-1.0625 0l0 -6.78125q-0.390625 0.359375 -1.015625 0.734375q-0.625 0.359375 -1.125 0.546875l0 -1.03125q0.90625 -0.421875 1.5625 -1.015625q0.671875 -0.59375 0.953125 -1.15625l0.6875 0l0 8.703125z" fill-rule="nonzero"/><path fill="#4285f4" d="m469.52536 396.8453l21.858276 0l0 21.322815l-21.858276 0z" fill-rule="evenodd"/><path stroke="#595959" stroke-width="1.136482939632546" stroke-linejoin="round" stroke-linecap="butt" d="m469.52536 396.8453l21.858276 0l0 21.322815l-21.858276 0z" fill-rule="evenodd"/><path fill="#4285f4" d="m108.56903 373.87573l21.858261 0l0 21.322845l-21.858261 0z" fill-rule="evenodd"/><path stroke="#595959" stroke-width="1.136482939632546" stroke-linejoin="round" stroke-linecap="butt" d="m108.56903 373.87573l21.858261 0l0 21.322845l-21.858261 0z" fill-rule="evenodd"/><path fill="#4285f4" d="m108.56797 77.74786l21.858269 0l0 21.322838l-21.858269 0z" fill-rule="evenodd"/><path stroke="#595959" stroke-width="1.136482939632546" stroke-linejoin="round" stroke-linecap="butt" d="m108.56797 77.74786l21.858269 0l0 21.322838l-21.858269 0z" fill-rule="evenodd"/><path fill="#4285f4" d="m829.88086 374.10086l21.858276 0l0 21.322845l-21.858276 0z" fill-rule="evenodd"/><path stroke="#595959" stroke-width="1.136482939632546" stroke-linejoin="round" stroke-linecap="butt" d="m829.88086 374.10086l21.858276 0l0 21.322845l-21.858276 0z" fill-rule="evenodd"/><path fill="#4285f4" d="m829.8798 77.973l21.858276 0l0 21.322838l-21.858276 0z" fill-rule="evenodd"/><path stroke="#595959" stroke-width="1.136482939632546" stroke-linejoin="round" stroke-linecap="butt" d="m829.8798 77.973l21.858276 0l0 21.322838l-21.858276 0z" fill-rule="evenodd"/><path fill="#4285f4" d="m469.52536 55.42748l21.858276 0l0 21.322834l-21.858276 0z" fill-rule="evenodd"/><path stroke="#595959" stroke-width="1.136482939632546" stroke-linejoin="round" stroke-linecap="butt" d="m469.52536 55.42748l21.858276 0l0 21.322834l-21.858276 0z" fill-rule="evenodd"/><path fill="#4285f4" d="m469.526 132.71268l21.858246 0l0 21.32283l-21.858246 0z" fill-rule="evenodd"/><path stroke="#595959" stroke-width="1.136482939632546" stroke-linejoin="round" stroke-linecap="butt" d="m469.526 132.71268l21.858246 0l0 21.32283l-21.858246 0z" fill-rule="evenodd"/><path fill="#4285f4" d="m469.52536 319.56528l21.858276 0l0 21.322845l-21.858276 0z" fill-rule="evenodd"/><path stroke="#595959" stroke-width="1.136482939632546" stroke-linejoin="round" stroke-linecap="butt" d="m469.52536 319.56528l21.858276 0l0 21.322845l-21.858276 0z" fill-rule="evenodd"/><path fill="#000000" fill-opacity="0.0" d="m732.5856 492.20676l31.527588 0" fill-rule="evenodd"/><path stroke="#000000" stroke-width="9.089238845144356" stroke-linejoin="round" stroke-linecap="butt" d="m732.5856 492.20676l31.527588 0" fill-rule="evenodd"/><path fill="#000000" fill-opacity="0.0" d="m764.11194 484.54913l87.62207 0l0 15.338562l-87.62207 0z" fill-rule="evenodd"/><path fill="#595959" d="m774.6588 493.79984l1.078125 -0.09375q0.078125 0.640625 0.359375 1.0625q0.28125 0.421875 0.875 0.6875q0.59375 0.25 1.328125 0.25q0.65625 0 1.15625 -0.1875q0.5 -0.203125 0.75 -0.546875q0.25 -0.34375 0.25 -0.75q0 -0.40625 -0.25 -0.703125q-0.234375 -0.3125 -0.765625 -0.515625q-0.359375 -0.140625 -1.5625 -0.421875q-1.1875 -0.28125 -1.65625 -0.546875q-0.625 -0.3125 -0.9375 -0.796875q-0.296875 -0.484375 -0.296875 -1.078125q0 -0.65625 0.375 -1.21875q0.375 -0.578125 1.078125 -0.875q0.71875 -0.296875 1.59375 -0.296875q0.96875 0 1.703125 0.3125q0.734375 0.3125 1.125 0.921875q0.40625 0.59375 0.4375 1.359375l-1.109375 0.078125q-0.078125 -0.828125 -0.59375 -1.25q-0.515625 -0.421875 -1.515625 -0.421875q-1.03125 0 -1.515625 0.390625q-0.46875 0.375 -0.46875 0.921875q0 0.46875 0.328125 0.765625q0.34375 0.296875 1.734375 0.625q1.40625 0.3125 1.921875 0.546875q0.75 0.34375 1.109375 0.890625q0.359375 0.53125 0.359375 1.21875q0 0.703125 -0.390625 1.3125q-0.390625 0.609375 -1.140625 0.953125q-0.734375 0.328125 -1.671875 0.328125q-1.171875 0 -1.96875 -0.328125q-0.796875 -0.34375 -1.25 -1.03125q-0.453125 -0.703125 -0.46875 -1.5625zm12.623718 0.765625l1.109375 0.125q-0.265625 0.96875 -0.96875 1.5q-0.703125 0.53125 -1.796875 0.53125q-1.375 0 -2.1875 -0.84375q-0.8125 -0.859375 -0.8125 -2.390625q0 -1.578125 0.8125 -2.453125q0.828125 -0.875 2.125 -0.875q1.265625 0 2.0625 0.859375q0.796875 0.859375 0.796875 2.40625q0 0.09375 -0.015625 0.28125l-4.671875 0q0.0625 1.046875 0.578125 1.59375q0.53125 0.546875 1.3125 0.546875q0.59375 0 1.0 -0.296875q0.421875 -0.3125 0.65625 -0.984375zm-3.484375 -1.734375l3.5 0q-0.078125 -0.78125 -0.40625 -1.1875q-0.5 -0.609375 -1.3125 -0.609375q-0.734375 0 -1.234375 0.5q-0.5 0.484375 -0.546875 1.296875zm5.73468 4.265625l1.03125 0.15625q0.0625 0.484375 0.359375 0.703125q0.390625 0.296875 1.078125 0.296875q0.734375 0 1.140625 -0.296875q0.40625 -0.296875 0.546875 -0.828125q0.078125 -0.328125 0.078125 -1.375q-0.703125 0.828125 -1.734375 0.828125q-1.296875 0 -2.015625 -0.9375q-0.703125 -0.9375 -0.703125 -2.234375q0 -0.90625 0.328125 -1.65625q0.328125 -0.765625 0.9375 -1.171875q0.625 -0.421875 1.453125 -0.421875q1.109375 0 1.828125 0.90625l0 -0.765625l0.984375 0l0 5.4375q0 1.453125 -0.296875 2.0625q-0.296875 0.625 -0.953125 0.96875q-0.640625 0.359375 -1.578125 0.359375q-1.125 0 -1.828125 -0.515625q-0.6875 -0.5 -0.65625 -1.515625zm0.875 -3.765625q0 1.234375 0.484375 1.8125q0.5 0.5625 1.234375 0.5625q0.734375 0 1.234375 -0.5625q0.5 -0.578125 0.5 -1.78125q0 -1.15625 -0.515625 -1.734375q-0.515625 -0.59375 -1.234375 -0.59375q-0.703125 0 -1.203125 0.578125q-0.5 0.578125 -0.5 1.71875zm6.04718 3.25l0 -6.28125l0.953125 0l0 0.890625q0.296875 -0.46875 0.78125 -0.75q0.5 -0.28125 1.125 -0.28125q0.703125 0 1.140625 0.296875q0.453125 0.28125 0.625 0.796875q0.75 -1.09375 1.953125 -1.09375q0.921875 0 1.421875 0.515625q0.515625 0.515625 0.515625 1.59375l0 4.3125l-1.0625 0l0 -3.953125q0 -0.640625 -0.109375 -0.921875q-0.09375 -0.28125 -0.375 -0.453125q-0.265625 -0.171875 -0.640625 -0.171875q-0.65625 0 -1.09375 0.4375q-0.4375 0.4375 -0.4375 1.421875l0 3.640625l-1.0625 0l0 -4.078125q0 -0.71875 -0.265625 -1.0625q-0.25 -0.359375 -0.84375 -0.359375q-0.453125 0 -0.84375 0.234375q-0.375 0.234375 -0.546875 0.703125q-0.171875 0.453125 -0.171875 1.296875l0 3.265625l-1.0625 0zm14.384094 -2.015625l1.109375 0.125q-0.265625 0.96875 -0.96875 1.5q-0.703125 0.53125 -1.796875 0.53125q-1.375 0 -2.1875 -0.84375q-0.8125 -0.859375 -0.8125 -2.390625q0 -1.578125 0.8125 -2.453125q0.828125 -0.875 2.125 -0.875q1.265625 0 2.0625 0.859375q0.796875 0.859375 0.796875 2.40625q0 0.09375 -0.015625 0.28125l-4.671875 0q0.0625 1.046875 0.578125 1.59375q0.53125 0.546875 1.3125 0.546875q0.59375 0 1.0 -0.296875q0.421875 -0.3125 0.65625 -0.984375zm-3.484375 -1.734375l3.5 0q-0.078125 -0.78125 -0.40625 -1.1875q-0.5 -0.609375 -1.3125 -0.609375q-0.734375 0 -1.234375 0.5q-0.5 0.484375 -0.546875 1.296875zm5.922119 3.75l0 -6.28125l0.953125 0l0 0.890625q0.703125 -1.03125 2.0 -1.03125q0.578125 0 1.046875 0.203125q0.484375 0.203125 0.71875 0.546875q0.234375 0.328125 0.328125 0.78125q0.0625 0.296875 0.0625 1.03125l0 3.859375l-1.0625 0l0 -3.8125q0 -0.65625 -0.125 -0.96875q-0.125 -0.328125 -0.453125 -0.515625q-0.3125 -0.203125 -0.734375 -0.203125q-0.6875 0 -1.1875 0.4375q-0.484375 0.421875 -0.484375 1.640625l0 3.421875l-1.0625 0zm9.062805 -0.953125l0.15625 0.9375q-0.453125 0.09375 -0.8125 0.09375q-0.578125 0 -0.90625 -0.171875q-0.3125 -0.1875 -0.4375 -0.484375q-0.125 -0.296875 -0.125 -1.265625l0 -3.609375l-0.78125 0l0 -0.828125l0.78125 0l0 -1.546875l1.046875 -0.640625l0 2.1875l1.078125 0l0 0.828125l-1.078125 0l0 3.671875q0 0.453125 0.0625 0.59375q0.0625 0.125 0.1875 0.203125q0.125 0.078125 0.359375 0.078125q0.171875 0 0.46875 -0.046875z" fill-rule="nonzero"/></g></svg>